<?xml version="1.0" encoding="UTF-8"?>
<svg xmlns="http://www.w3.org/2000/svg" width="141" height="72" viewBox="0 0 141 72" fill="none">
  <path d="M78.1891 23.1877V18.0495H70.573V15.0008L76.161 1.20264H81.3084V15.372H82.7975V18.0495H81.3084V23.1877H78.1891ZM78.1891 3.55489L73.4393 15.3819H78.1891V3.55489Z" fill="#231F20"></path>
  <path d="M84.5327 6.21554C84.5327 2.42434 86.6857 0.752136 90.0812 0.752136C93.5326 0.752136 95.7086 2.42434 95.7086 6.21554V18.2593C95.7086 22.0538 93.5589 23.6176 90.1207 23.6176C86.7252 23.6176 84.5327 22.0538 84.5327 18.2593V6.21554ZM92.5761 6.69519C92.5761 4.94414 92.1258 3.42963 90.0812 3.42963C88.1715 3.42963 87.639 4.80945 87.639 6.69519V17.6779C87.639 19.5636 88.1715 20.9434 90.1075 20.9434C92.1258 20.9434 92.5761 19.4289 92.5761 17.6779V6.69519Z" fill="#231F20"></path>
  <path d="M98.5487 23.1877V4.70473H97.4607V3.85714L99.0155 1.20264H101.645V23.1877H98.5487Z" fill="#231F20"></path>
  <path d="M73.5964 47.1698V27.8885H70.4639V25.2078H79.8878V27.8885H76.7289V47.1698H73.5964Z" fill="#231F20"></path>
  <path d="M81.5945 47.1698V25.2078H90.4695V27.8885H84.6941V34.4591H90.3215V37.1399H84.6941V44.489H90.4695V47.1698H81.5945Z" fill="#231F20"></path>
  <path d="M100.593 38.6086H103.725V42.2684C103.725 46.0629 101.576 47.63 98.1373 47.63C94.699 47.63 92.5493 46.0629 92.5493 42.2684V30.2246C92.5493 26.4301 94.699 24.7579 98.1373 24.7579C101.576 24.7579 103.725 26.4301 103.725 30.2246V33.0631H100.593V30.701C100.593 28.9499 100.142 27.4387 98.0978 27.4387C96.1881 27.4387 95.6556 28.8185 95.6556 30.701V41.6869C95.6556 43.5694 96.1881 44.9492 98.1241 44.9492C100.142 44.9492 100.593 43.438 100.593 41.6869V38.6086Z" fill="#231F20"></path>
  <path d="M114.106 47.1698V37.2023H109.175V47.1698H106.069V25.2078H109.175V34.5215H114.106V25.2078H117.238V47.1698H114.106Z" fill="#231F20"></path>
  <path d="M71.6077 71.6025V49.6339H78.5104C82.1262 49.6339 82.6521 51.8875 82.6521 54.6997V55.6558C82.6521 57.6466 82.5206 59.9792 79.6938 60.3241C82.7211 60.6954 82.7737 63.0838 82.7737 65.0483V66.0339C82.7737 69.1385 82.445 71.6189 78.632 71.6189L71.6077 71.6025ZM79.5163 55.3831C79.49 53.1294 79.0659 52.3048 77.2614 52.3048H74.7139V58.9377H77.3928C79.0364 58.9377 79.5163 58.0639 79.5163 56.3095V55.3831ZM79.651 64.1383C79.651 62.1672 78.7208 61.6448 77.5276 61.6448H74.7139V68.9151H77.3928C79.2796 68.9151 79.651 68.0412 79.651 65.5707V64.1383Z" fill="#231F20"></path>
  <path d="M93.4527 71.6025C93.1864 70.9125 93.1864 69.0005 93.1864 67.5944V64.5818C93.1864 62.5647 92.1247 62.1672 91.0104 62.1672H88.2493V71.6123H85.1431V49.6339H92.1773C95.9475 49.6339 96.319 52.1274 96.319 54.8082V56.3194C96.319 58.0967 96.1349 60.2617 93.4001 60.8038C96.2401 61.2013 96.319 63.2447 96.319 65.206V68.4913C96.319 69.7101 96.3453 71.0374 96.5326 71.5959L93.4527 71.6025ZM93.1864 55.2582C93.1864 53.1359 92.6835 52.3015 90.9841 52.3015H88.2493V59.4667H91.063C92.6835 59.4667 93.1864 58.7768 93.1864 57.0783V55.2582Z" fill="#231F20"></path>
  <path d="M98.7622 71.6025V49.6339H101.868V71.6025H98.7622Z" fill="#231F20"></path>
  <path d="M104.681 71.6025V49.6339H111.716C115.538 49.6339 115.857 52.1011 115.857 55.2188V66.0602C115.857 69.1648 115.529 71.6452 111.716 71.6452L104.681 71.6025ZM112.725 55.6558C112.725 53.1885 112.353 52.3113 110.467 52.3113H107.788V68.9217H110.467C112.353 68.9217 112.725 68.0478 112.725 65.5773V55.6558Z" fill="#231F20"></path>
  <path d="M127.061 71.6026L126.847 69.8253C126.13 71.2577 124.671 72.0001 122.866 72.0001C120.289 72.0001 118.245 70.5152 118.245 66.7437V54.6473C118.245 50.8528 120.398 49.1806 123.833 49.1806C127.268 49.1806 129.421 50.8528 129.421 54.6473V57.1146H126.298V55.1237C126.298 53.3726 125.848 51.8614 123.803 51.8614C121.893 51.8614 121.361 53.2412 121.361 55.1237V66.2936C121.361 68.6524 122.396 69.3686 123.662 69.3686C125.44 69.3686 126.292 67.9363 126.292 65.4953V62.3382H123.797V59.6311H129.421V71.5993L127.061 71.6026Z" fill="#231F20"></path>
  <path d="M131.97 71.6025V49.6339H140.845V52.3113H135.077V58.8819H140.704V61.5627H135.077V68.9118H140.836V71.5926L131.97 71.6025Z" fill="#231F20"></path>
  <path d="M60.1694 0V71.2543H66.9933V0H60.1694Z" fill="#F2BC19"></path>
  <path d="M39.7532 29.5674V71.2543H45.4956V25.8222L39.7532 29.5674Z" fill="#4F658D"></path>
  <path d="M49.6936 22.7966V71.2544H55.4328V18.2235L49.6936 22.7966Z" fill="#2F3C68"></path>
  <path d="M0 47.3112V71.2542H5.74244V45.4353L0 47.3112Z" fill="#A7B2C5"></path>
  <path d="M9.93701 43.8944V71.2542H15.6795V41.6605L9.93701 43.8944Z" fill="#8F9DB6"></path>
  <path d="M19.8772 39.9192V71.2542H25.6196V37.2549L19.8772 39.9192Z" fill="#7B8BAA"></path>
  <path d="M29.8132 35.1853V71.2543H35.5557V32.0643L29.8132 35.1853Z" fill="#65789B"></path>
</svg>
